{
    "asset" : {
        "generator" : "Khronos glTF Blender I/O v3.3.32",
        "version" : "2.0"
    },
    "scene" : 0,
    "scenes" : [
        {
            "name" : "Scene",
            "nodes" : [
                0
            ]
        }
    ],
    "nodes" : [
        {
            "mesh" : 0,
            "name" : "Sphere.003",
            "scale" : [
                14.417476654052734,
                14.417476654052734,
                14.417476654052734
            ],
            "translation" : [
                20.44330596923828,
                -18.46515464782715,
                31.7431640625
            ]
        }
    ],
    "materials" : [
        {
            "doubleSided" : true,
            "name" : "plastic blue",
            "pbrMetallicRoughness" : {}
        },
        {
            "doubleSided" : true,
            "name" : "plastic violet",
            "pbrMetallicRoughness" : {}
        }
    ],
    "meshes" : [
        {
            "name" : "Sphere.003",
            "primitives" : [
                {
                    "attributes" : {
                        "POSITION" : 0,
                        "TEXCOORD_0" : 1
                    },
                    "indices" : 2,
                    "material" : 0
                },
                {
                    "attributes" : {
                        "POSITION" : 3,
                        "TEXCOORD_0" : 4
                    },
                    "indices" : 5,
                    "material" : 1
                }
            ]
        }
    ],
    "accessors" : [
        {
            "bufferView" : 0,
            "componentType" : 5126,
            "count" : 15435,
            "max" : [
                0.7939280867576599,
                0.7833313345909119,
                0.8336941599845886
            ],
            "min" : [
                -0.924594521522522,
                -0.7498706579208374,
                -0.9807848334312439
            ],
            "type" : "VEC3"
        },
        {
            "bufferView" : 1,
            "componentType" : 5126,
            "count" : 15435,
            "type" : "VEC2"
        },
        {
            "bufferView" : 2,
            "componentType" : 5123,
            "count" : 85248,
            "type" : "SCALAR"
        },
        {
            "bufferView" : 3,
            "componentType" : 5126,
            "count" : 8816,
            "max" : [
                0.7939280867576599,
                1.0262748003005981,
                0.8336941599845886
            ],
            "min" : [
                -0.924594521522522,
                -0.5687603950500488,
                -0.9807848334312439
            ],
            "type" : "VEC3"
        },
        {
            "bufferView" : 4,
            "componentType" : 5126,
            "count" : 8816,
            "type" : "VEC2"
        },
        {
            "bufferView" : 5,
            "componentType" : 5123,
            "count" : 46848,
            "type" : "SCALAR"
        }
    ],
    "bufferViews" : [
        {
            "buffer" : 0,
            "byteLength" : 185220,
            "byteOffset" : 0,
            "target" : 34962
        },
        {
            "buffer" : 0,
            "byteLength" : 123480,
            "byteOffset" : 185220,
            "target" : 34962
        },
        {
            "buffer" : 0,
            "byteLength" : 170496,
            "byteOffset" : 308700,
            "target" : 34963
        },
        {
            "buffer" : 0,
            "byteLength" : 105792,
            "byteOffset" : 479196,
            "target" : 34962
        },
        {
            "buffer" : 0,
            "byteLength" : 70528,
            "byteOffset" : 584988,
            "target" : 34962
        },
        {
            "buffer" : 0,
            "byteLength" : 93696,
            "byteOffset" : 655516,
            "target" : 34963
        }
    ],
    "buffers" : [
        {
            "byteLength" : 749212,
            "uri" : "data:application/octet-stream;base64,"
        }
    ]
}
