<svg width="1440" height="900" viewBox="0 0 1440 900" fill="none" xmlns="http://www.w3.org/2000/svg">
<g clip-path="url(#clip0_136_84)">
<rect width="1440" height="900" fill="#F7F5F7"/>
<path d="M247 -24L1189.11 918.11" stroke="#E3D0FD" stroke-width="1.98339"/>
<path d="M920.996 -247.389L920.996 1084.96" stroke="#E3D0FD" stroke-width="1.98339"/>
<path d="M517.707 -254L517.707 1078.34" stroke="#E3D0FD" stroke-width="1.98339"/>
<path d="M995.703 -247.389L995.703 1084.96" stroke="#E3D0FD" stroke-width="1.98339"/>
<path d="M-210 725.061L1504.97 725.061" stroke="#E3D0FD" stroke-width="1.98339"/>
<path d="M-188.844 651.014L1526.13 651.014" stroke="#E3D0FD" stroke-width="1.98339"/>
<path d="M-210 247.725L1504.97 247.725" stroke="#E3D0FD" stroke-width="1.98339"/>
<path d="M443 -254L443 1078.34" stroke="#E3D0FD" stroke-width="1.98339"/>
<path d="M1400.93 -271.389V1060.96" stroke="#E3D0FD" stroke-width="1.98339"/>
<path d="M39 -278L39 1054.34" stroke="#E3D0FD" stroke-width="1.98339"/>
<path d="M1191.77 -271.389V1060.96" stroke="#E3D0FD" stroke-width="1.98339"/>
<path d="M249 -278L249 1054.34" stroke="#E3D0FD" stroke-width="1.98339"/>
<path d="M1190.43 -17.3887L248.324 924.721" stroke="#E3D0FD" stroke-width="1.98339"/>
<path d="M-188.844 175L1526.13 175" stroke="#E3D0FD" stroke-width="1.98339"/>
</g>
<defs>
<clipPath id="clip0_136_84">
<rect width="1440" height="900" fill="white"/>
</clipPath>
</defs>
</svg>
