<svg width="1440" height="796" viewBox="0 0 1440 796" fill="none" xmlns="http://www.w3.org/2000/svg">
<g clip-path="url(#clip0_202_86)">
<rect width="1440" height="796" fill="#3F3F3F"/>
<path d="M247.262 -73.9971L1189.37 868.113" stroke="#E3D0FD" stroke-opacity="0.4" stroke-width="1.98339"/>
<path d="M920.953 -249.196L920.953 1083.15" stroke="#E3D0FD" stroke-opacity="0.4" stroke-width="1.98339"/>
<path d="M517.664 -255.808L517.664 1076.54" stroke="#E3D0FD" stroke-opacity="0.4" stroke-width="1.98339"/>
<path d="M995.66 -249.196L995.66 1083.15" stroke="#E3D0FD" stroke-opacity="0.4" stroke-width="1.98339"/>
<path d="M-209.578 678.369L1505.39 678.369" stroke="#E3D0FD" stroke-opacity="0.4" stroke-width="1.98339"/>
<path d="M-188.422 604.322L1526.55 604.322" stroke="#E3D0FD" stroke-opacity="0.4" stroke-width="1.98339"/>
<path d="M-209.578 201.033L1505.39 201.033" stroke="#E3D0FD" stroke-opacity="0.4" stroke-width="1.98339"/>
<path d="M442.957 -255.808L442.957 1076.54" stroke="#E3D0FD" stroke-opacity="0.4" stroke-width="1.98339"/>
<path d="M1400.27 -262.419V1069.93" stroke="#E3D0FD" stroke-opacity="0.4" stroke-width="1.98339"/>
<path d="M38.3457 -269.03L38.3457 1063.31" stroke="#E3D0FD" stroke-opacity="0.4" stroke-width="1.98339"/>
<path d="M1190.69 -262.419V1069.93" stroke="#E3D0FD" stroke-opacity="0.4" stroke-width="1.98339"/>
<path d="M247.924 -269.03L247.924 1063.31" stroke="#E3D0FD" stroke-opacity="0.4" stroke-width="1.98339"/>
<path d="M1190.69 -67.3857L248.584 874.724" stroke="#E3D0FD" stroke-opacity="0.4" stroke-width="1.98339"/>
<path d="M-188.422 128.309L1526.55 128.309" stroke="#E3D0FD" stroke-opacity="0.4" stroke-width="1.98339"/>
</g>
<defs>
<clipPath id="clip0_202_86">
<rect width="1440" height="796" fill="white"/>
</clipPath>
</defs>
</svg>
