<svg width="36" height="36" viewBox="0 0 36 36" fill="none" xmlns="http://www.w3.org/2000/svg">
<path fill-rule="evenodd" clip-rule="evenodd" d="M17.6268 35.5329C27.2658 35.5329 35.0798 27.7189 35.0798 18.0799C35.0798 8.44091 27.2658 0.626953 17.6268 0.626953C7.98779 0.626953 0.173828 8.44091 0.173828 18.0799C0.173828 27.7189 7.98779 35.5329 17.6268 35.5329ZM11.4339 22.6516H8.28952C8.33496 24.1003 8.62469 25.4382 9.15871 26.6653C9.6984 27.8867 10.5932 28.8837 11.843 29.6563C13.0985 30.4289 14.763 30.8152 16.8366 30.8152C18.3364 30.8152 19.7254 30.5397 21.0036 29.9886C22.2875 29.4376 23.3158 28.5968 24.0884 27.4663C24.8667 26.3301 25.2558 24.9325 25.2558 23.2737C25.2558 22.1716 25.057 21.1831 24.6593 20.3082C24.2673 19.4333 23.7134 18.7289 22.9976 18.1949C22.2818 17.6609 21.4638 17.3314 20.5434 17.2064V17.0274C21.674 16.7093 22.6255 16.073 23.3981 15.1186C24.1708 14.1642 24.5571 12.9968 24.5571 11.6163C24.5571 10.5994 24.327 9.58249 23.8668 8.56559C23.4067 7.54869 22.5971 6.68802 21.4382 5.98357C20.2849 5.27345 18.7397 4.91839 16.8025 4.91839C14.6892 4.91839 13.0474 5.35866 11.8771 6.23922C10.7068 7.11977 9.91996 8.17076 9.51661 9.39217C9.11894 10.6136 8.92011 11.8435 8.92011 13.082H11.9538C11.9538 11.5254 12.3031 10.2131 13.0019 9.14505C13.7063 8.07134 14.9391 7.53449 16.7002 7.53449C17.933 7.53449 18.9073 7.75604 19.6231 8.19916C20.3446 8.6366 20.8388 9.17345 21.1059 9.80973C21.3785 10.4403 21.5149 11.0908 21.5149 11.7611C21.5149 14.5732 19.7367 15.9793 16.1804 15.9793H15.2005L15.2345 18.638C15.2686 18.638 15.5612 18.6323 16.1123 18.621C16.6633 18.6039 17.1973 18.5954 17.7143 18.5954C19.1573 18.5954 20.2622 19.0016 21.0292 19.814C21.7961 20.6264 22.1796 21.7001 22.1796 23.0351C22.1796 24.4156 21.7791 25.6228 20.978 26.6567C20.177 27.685 18.7284 28.1991 16.6321 28.1991C13.5189 28.1991 11.7862 26.35 11.4339 22.6516Z" fill="black"/>
</svg>
