<svg width="35" height="35" viewBox="0 0 35 35" fill="none" xmlns="http://www.w3.org/2000/svg">
<path fill-rule="evenodd" clip-rule="evenodd" d="M17.453 34.9059C27.092 34.9059 34.9059 27.092 34.9059 17.453C34.9059 7.81396 27.092 0 17.453 0C7.81396 0 0 7.81396 0 17.453C0 27.092 7.81396 34.9059 17.453 34.9059ZM25.2865 29.4554V26.6945H12.3764C12.5469 26.0298 12.8622 25.3963 13.3223 24.7942C13.7825 24.192 14.4528 23.5529 15.3334 22.8768C16.2196 22.2008 17.3729 21.4282 18.7931 20.559C20.5656 19.4909 21.9262 18.5025 22.8749 17.5935C23.8293 16.6845 24.4798 15.7784 24.8263 14.8751C25.1786 13.9719 25.3547 12.9095 25.3547 11.6881C25.3547 9.48387 24.8008 7.83354 23.693 6.7371C22.5909 5.64067 21.449 4.95895 20.2673 4.69194C19.0857 4.42494 18.0603 4.29143 17.1911 4.29143C14.8448 4.29143 13.0496 4.77432 11.8055 5.74009C10.5614 6.70586 9.75182 7.77104 9.37687 8.93565C9.00192 10.1003 8.81445 11.1456 8.81445 12.0716V12.8044H12.0271V11.9011C12.0271 10.8842 12.2486 10.0094 12.6917 9.27651C13.1349 8.54366 13.7399 7.98976 14.5068 7.61482C15.2737 7.23419 16.1344 7.04388 17.0888 7.04388C18.6568 7.04388 19.8668 7.46995 20.719 8.3221C21.5768 9.16857 22.0057 10.3019 22.0057 11.7222C22.0057 12.8129 21.7813 13.7503 21.3325 14.5343C20.8837 15.3183 20.3355 15.9659 19.6879 16.4772C19.0403 16.9885 18.1483 17.602 17.0121 18.3178C14.967 19.6245 13.382 20.7521 12.2571 21.7009C11.1323 22.6439 10.2659 23.729 9.65808 24.9561C9.05021 26.1832 8.74628 27.6829 8.74628 29.4554H25.2865Z" fill="black"/>
</svg>
